<svg width="32" height="32" viewBox="0 0 32 32" fill="none" xmlns="http://www.w3.org/2000/svg">
<path d="M22.3625 3.05176e-05H19.0294C16.4792 3.05176e-05 14.6475 0.605357 13.5342 1.8156C12.4207 3.02625 11.8644 4.80922 11.8644 7.16527V9.41106C11.8644 10.0046 11.3834 10.4856 10.7899 10.4856H9.63799C9.04448 10.4856 8.56347 10.9666 8.56347 11.5601V14.9255C8.56347 15.519 9.04448 16 9.63799 16H10.7899C11.3834 16 11.8644 16.481 11.8644 17.0745V30.9254C11.8644 31.519 12.3454 32 12.9389 32H17.4111C18.0046 32 18.4856 31.5189 18.4856 30.9254V17.0746C18.4856 16.481 18.9667 16.0001 19.5601 16.0001H21.8187C22.4123 16.0001 22.9438 15.5216 23.0061 14.9316L23.3628 11.554C23.4252 10.9638 22.9947 10.4856 22.4011 10.4856H19.5598C18.9663 10.4856 18.4852 10.0046 18.4852 9.41106V7.72834C18.4852 7.31428 18.5046 6.99373 18.5436 6.76701C18.5823 6.54063 18.6697 6.31747 18.8058 6.09719C18.9415 5.87731 19.1618 5.72508 19.4659 5.64087C19.7699 5.55671 20.1747 5.51445 20.6794 5.51445H22.3621C22.9556 5.51445 23.4365 5.03343 23.4365 4.43993V1.07455C23.437 0.481049 22.956 3.05176e-05 22.3625 3.05176e-05Z" fill="#36508B"/>
</svg>
