<svg width="32" height="32" viewBox="0 0 32 32" fill="none" xmlns="http://www.w3.org/2000/svg">
<path fill-rule="evenodd" clip-rule="evenodd" d="M29.9997 9.99972C29.9997 5.58457 26.4152 2 22 2H10C5.58488 2 2.00031 5.58457 2.00031 9.99972V21.9997C2.00031 26.4149 5.58488 29.9994 10 29.9994H22C26.4152 29.9994 29.9997 26.4149 29.9997 21.9997V9.99972ZM28 9.99972C28 6.68857 25.3112 3.99971 22 3.99971H10C6.68888 3.99971 4.00002 6.68857 4.00002 9.99972V21.9997C4.00002 25.3109 6.68888 27.9997 10 27.9997H22C25.3112 27.9997 28 25.3109 28 21.9997V9.99972Z" fill="#FF2316"/>
<path fill-rule="evenodd" clip-rule="evenodd" d="M16 9C12.137 9 9 12.137 9 16C9 19.863 12.137 23 16 23C19.863 23 23 19.863 23 16C23 12.137 19.863 9 16 9ZM16 11C18.76 11 21 13.24 21 16C21 18.76 18.76 21 16 21C13.24 21 11 18.76 11 16C11 13.24 13.24 11 16 11Z" fill="#FE2442"/>
<path d="M24 9C24.5523 9 25 8.55228 25 8C25 7.44772 24.5523 7 24 7C23.4477 7 23 7.44772 23 8C23 8.55228 23.4477 9 24 9Z" fill="#EB2486"/>
</svg>
