<svg width="32" height="24" viewBox="0 0 32 24" fill="none" xmlns="http://www.w3.org/2000/svg">
<g id="menu-h-dark-alt">
<path id="botton" fill-rule="evenodd" clip-rule="evenodd" d="M0 23C0 22.4477 0.447715 22 1 22H31C31.5523 22 32 22.4477 32 23C32 23.5523 31.5523 24 31 24H1C0.447715 24 0 23.5523 0 23Z" fill="#252D30"/>
<path id="center" fill-rule="evenodd" clip-rule="evenodd" d="M4 12C4 11.4477 4.44772 11 5 11H27C27.5523 11 28 11.4477 28 12C28 12.5523 27.5523 13 27 13H5C4.44772 13 4 12.5523 4 12Z" fill="#252D30"/>
<path id="top" fill-rule="evenodd" clip-rule="evenodd" d="M0 1C0 0.447715 0.447715 0 1 0H31C31.5523 0 32 0.447715 32 1C32 1.55228 31.5523 2 31 2H1C0.447715 2 0 1.55228 0 1Z" fill="#252D30"/>
</g>
</svg>
