<svg width="32" height="32" viewBox="0 0 32 32" fill="none" xmlns="http://www.w3.org/2000/svg">
<path fill-rule="evenodd" clip-rule="evenodd" d="M5.33333 10.6667H26.6667C29.0231 10.6667 30.9333 12.5769 30.9333 14.9333V27.7333C30.9333 30.0897 29.0231 32 26.6667 32H5.33333C2.97692 32 1.06667 30.0897 1.06667 27.7333V14.9333C1.06667 12.5769 2.97692 10.6667 5.33333 10.6667ZM5.33333 12.8C4.15513 12.8 3.2 13.7551 3.2 14.9333V27.7333C3.2 28.9115 4.15513 29.8667 5.33333 29.8667H26.6667C27.8449 29.8667 28.8 28.9115 28.8 27.7333V14.9333C28.8 13.7551 27.8449 12.8 26.6667 12.8H5.33333Z" fill="#F2FAFD"/>
<path fill-rule="evenodd" clip-rule="evenodd" d="M7.45509 11.1116C7.46117 11.3419 7.46668 11.5507 7.46668 11.7333H5.33334C5.33334 11.61 5.32815 11.4502 5.32196 11.2596C5.2817 10.02 5.19906 7.47577 6.22528 5.16678C6.83573 3.79327 7.84001 2.47772 9.45443 1.51675C11.0592 0.561531 13.1935 0 16 0C18.8065 0 20.9408 0.561531 22.5456 1.51675C24.16 2.47772 25.1643 3.79327 25.7747 5.16678C26.801 7.47577 26.7183 10.02 26.6781 11.2596C26.6719 11.4502 26.6667 11.61 26.6667 11.7333H24.5333C24.5333 11.5507 24.5389 11.3419 24.5449 11.1116C24.5791 9.81805 24.6311 7.84631 23.8253 6.03321C23.3691 5.00673 22.64 4.05561 21.4544 3.34991C20.2592 2.63847 18.5268 2.13333 16 2.13333C13.4732 2.13333 11.7408 2.63847 10.5456 3.34991C9.36002 4.05561 8.63096 5.00673 8.17474 6.03321C7.36892 7.84631 7.42095 9.81805 7.45509 11.1116Z" fill="#F2FAFD"/>
<path fill-rule="evenodd" clip-rule="evenodd" d="M18.1333 27.7333H13.8667V22.6474C13.8667 22.269 13.6369 21.8261 13.1669 21.4492C12.6728 21.053 11.9161 20.3397 11.7492 19.3834C11.5222 18.0825 12.118 16.9798 12.9488 16.2603C13.7675 15.5511 14.8898 15.1323 16 15.1323C17.1102 15.1323 18.2325 15.5511 19.0513 16.2603C19.882 16.9798 20.4778 18.0825 20.2508 19.3834C20.0839 20.3397 19.3273 21.053 18.8331 21.4492C18.3631 21.8261 18.1333 22.269 18.1333 22.6474V27.7333ZM16 16.199C14.2868 16.199 12.5055 17.5123 12.8 19.2C12.8941 19.7391 13.361 20.2377 13.8341 20.617C14.4627 21.121 14.9333 21.8416 14.9333 22.6474V26.6667H17.0667V22.6474C17.0667 21.8416 17.5373 21.121 18.1659 20.617C18.639 20.2377 19.1059 19.7391 19.2 19.2C19.4945 17.5123 17.7133 16.199 16 16.199Z" fill="#F2FAFD"/>
</svg>
