<svg width="80" height="16" viewBox="0 0 80 16" fill="none" xmlns="http://www.w3.org/2000/svg">
<path d="M5.60156 3.625H7.94531V11.5C7.94531 12.224 7.78385 12.8646 7.46094 13.4219C7.14323 13.974 6.69271 14.401 6.10938 14.7031C5.52604 15.0052 4.86719 15.1562 4.13281 15.1562C2.92969 15.1562 1.99219 14.8516 1.32031 14.2422C0.648438 13.6276 0.3125 12.7604 0.3125 11.6406H2.67188C2.67188 12.1979 2.78906 12.6094 3.02344 12.875C3.25781 13.1406 3.6276 13.2734 4.13281 13.2734C4.58073 13.2734 4.9375 13.1198 5.20312 12.8125C5.46875 12.5052 5.60156 12.0677 5.60156 11.5V3.625Z" fill="#1D4D06"/>
<path d="M9.45312 10.6953C9.45312 9.85677 9.61458 9.10938 9.9375 8.45312C10.2604 7.79688 10.724 7.28906 11.3281 6.92969C11.9375 6.57031 12.6432 6.39062 13.4453 6.39062C14.5859 6.39062 15.5156 6.73958 16.2344 7.4375C16.9583 8.13542 17.362 9.08333 17.4453 10.2812L17.4609 10.8594C17.4609 12.1562 17.099 13.1979 16.375 13.9844C15.651 14.7656 14.6797 15.1562 13.4609 15.1562C12.2422 15.1562 11.2682 14.7656 10.5391 13.9844C9.8151 13.2031 9.45312 12.1406 9.45312 10.7969V10.6953ZM11.7109 10.8594C11.7109 11.6615 11.862 12.276 12.1641 12.7031C12.4661 13.125 12.8984 13.3359 13.4609 13.3359C14.0078 13.3359 14.4349 13.1276 14.7422 12.7109C15.0495 12.2891 15.2031 11.6172 15.2031 10.6953C15.2031 9.90885 15.0495 9.29948 14.7422 8.86719C14.4349 8.4349 14.0026 8.21875 13.4453 8.21875C12.8932 8.21875 12.4661 8.4349 12.1641 8.86719C11.862 9.29427 11.7109 9.95833 11.7109 10.8594ZM20.9297 6.54688L21 7.52344C21.6042 6.76823 22.4141 6.39062 23.4297 6.39062C24.3255 6.39062 24.9922 6.65365 25.4297 7.17969C25.8672 7.70573 26.0911 8.49219 26.1016 9.53906V15H23.8438V9.59375C23.8438 9.11458 23.7396 8.76823 23.5312 8.55469C23.3229 8.33594 22.9766 8.22656 22.4922 8.22656C21.8568 8.22656 21.3802 8.4974 21.0625 9.03906V15H18.8047V6.54688H20.9297ZM32.7188 15C32.6146 14.7969 32.5391 14.5443 32.4922 14.2422C31.9453 14.8516 31.2344 15.1562 30.3594 15.1562C29.5312 15.1562 28.8438 14.9167 28.2969 14.4375C27.7552 13.9583 27.4844 13.3542 27.4844 12.625C27.4844 11.7292 27.8151 11.0417 28.4766 10.5625C29.1432 10.0833 30.1042 9.84115 31.3594 9.83594H32.3984V9.35156C32.3984 8.96094 32.2969 8.64844 32.0938 8.41406C31.8958 8.17969 31.5807 8.0625 31.1484 8.0625C30.7682 8.0625 30.4688 8.15365 30.25 8.33594C30.0365 8.51823 29.9297 8.76823 29.9297 9.08594H27.6719C27.6719 8.59635 27.8229 8.14323 28.125 7.72656C28.4271 7.3099 28.8542 6.98438 29.4062 6.75C29.9583 6.51042 30.5781 6.39062 31.2656 6.39062C32.3073 6.39062 33.1328 6.65365 33.7422 7.17969C34.3568 7.70052 34.6641 8.4349 34.6641 9.38281V13.0469C34.6693 13.849 34.7812 14.4557 35 14.8672V15H32.7188ZM30.8516 13.4297C31.1849 13.4297 31.4922 13.3568 31.7734 13.2109C32.0547 13.0599 32.263 12.8594 32.3984 12.6094V11.1562H31.5547C30.4245 11.1562 29.8229 11.5469 29.75 12.3281L29.7422 12.4609C29.7422 12.7422 29.8411 12.974 30.0391 13.1562C30.237 13.3385 30.5078 13.4297 30.8516 13.4297ZM55.4766 14.1406C54.9193 14.8177 54.1484 15.1562 53.1641 15.1562C52.2578 15.1562 51.5651 14.8958 51.0859 14.375C50.612 13.8542 50.3698 13.0911 50.3594 12.0859V6.54688H52.6172V12.0078C52.6172 12.888 53.0182 13.3281 53.8203 13.3281C54.5859 13.3281 55.112 13.0625 55.3984 12.5312V6.54688H57.6641V15H55.5391L55.4766 14.1406ZM63.9453 12.6641C63.9453 12.388 63.8073 12.1719 63.5312 12.0156C63.2604 11.8542 62.8229 11.7109 62.2188 11.5859C60.2083 11.1641 59.2031 10.3099 59.2031 9.02344C59.2031 8.27344 59.513 7.64844 60.1328 7.14844C60.7578 6.64323 61.5729 6.39062 62.5781 6.39062C63.651 6.39062 64.5078 6.64323 65.1484 7.14844C65.7943 7.65365 66.1172 8.3099 66.1172 9.11719H63.8594C63.8594 8.79427 63.7552 8.52865 63.5469 8.32031C63.3385 8.10677 63.013 8 62.5703 8C62.1901 8 61.8958 8.08594 61.6875 8.25781C61.4792 8.42969 61.375 8.64844 61.375 8.91406C61.375 9.16406 61.4922 9.36719 61.7266 9.52344C61.9661 9.67448 62.3672 9.80729 62.9297 9.92188C63.4922 10.0312 63.9661 10.1562 64.3516 10.2969C65.5443 10.7344 66.1406 11.4922 66.1406 12.5703C66.1406 13.3411 65.8099 13.9661 65.1484 14.4453C64.487 14.9193 63.6328 15.1562 62.5859 15.1562C61.8776 15.1562 61.2474 15.0312 60.6953 14.7812C60.1484 14.526 59.7188 14.1797 59.4062 13.7422C59.0938 13.2995 58.9375 12.8229 58.9375 12.3125H61.0781C61.099 12.7135 61.2474 13.0208 61.5234 13.2344C61.7995 13.4479 62.1693 13.5547 62.6328 13.5547C63.0651 13.5547 63.3906 13.474 63.6094 13.3125C63.8333 13.1458 63.9453 12.9297 63.9453 12.6641ZM69.9844 15H67.7188V6.54688H69.9844V15ZM67.5859 4.35938C67.5859 4.02083 67.6979 3.74219 67.9219 3.52344C68.151 3.30469 68.4609 3.19531 68.8516 3.19531C69.237 3.19531 69.5443 3.30469 69.7734 3.52344C70.0026 3.74219 70.1172 4.02083 70.1172 4.35938C70.1172 4.70312 70 4.98438 69.7656 5.20312C69.5365 5.42188 69.2318 5.53125 68.8516 5.53125C68.4714 5.53125 68.1641 5.42188 67.9297 5.20312C67.7005 4.98438 67.5859 4.70312 67.5859 4.35938ZM75.3672 13.3359C75.7839 13.3359 76.1224 13.2214 76.3828 12.9922C76.6432 12.763 76.7786 12.4583 76.7891 12.0781H78.9062C78.901 12.651 78.7448 13.1771 78.4375 13.6562C78.1302 14.1302 77.7083 14.5 77.1719 14.7656C76.6406 15.026 76.0521 15.1562 75.4062 15.1562C74.1979 15.1562 73.2448 14.7734 72.5469 14.0078C71.849 13.237 71.5 12.1745 71.5 10.8203V10.6719C71.5 9.36979 71.8464 8.33073 72.5391 7.55469C73.2318 6.77865 74.1823 6.39062 75.3906 6.39062C76.4479 6.39062 77.2943 6.69271 77.9297 7.29688C78.5703 7.89583 78.8958 8.69531 78.9062 9.69531H76.7891C76.7786 9.25781 76.6432 8.90365 76.3828 8.63281C76.1224 8.35677 75.7786 8.21875 75.3516 8.21875C74.8255 8.21875 74.4271 8.41146 74.1562 8.79688C73.8906 9.17708 73.7578 9.79688 73.7578 10.6562V10.8906C73.7578 11.7604 73.8906 12.3854 74.1562 12.7656C74.4219 13.1458 74.8255 13.3359 75.3672 13.3359Z" fill="#F2FAFD"/>
<path d="M39.6094 3.625L42.5312 11.875L45.4375 3.625H48.5156V15H46.1641V11.8906L46.3984 6.52344L43.3281 15H41.7188L38.6562 6.53125L38.8906 11.8906V15H36.5469V3.625H39.6094Z" fill="#561406"/>
</svg>
