<svg width="32" height="24" viewBox="0 0 32 24" fill="none" xmlns="http://www.w3.org/2000/svg">
<g id="menu-h-dark">
<path id="botton" fill-rule="evenodd" clip-rule="evenodd" d="M0 22C0 20.8954 0.895431 20 2 20H30C31.1046 20 32 20.8954 32 22C32 23.1046 31.1046 24 30 24H2C0.895431 24 0 23.1046 0 22Z" fill="#252D30"/>
<path id="center" fill-rule="evenodd" clip-rule="evenodd" d="M4 12C4 10.8954 4.89543 10 6 10H26C27.1046 10 28 10.8954 28 12C28 13.1046 27.1046 14 26 14H6C4.89543 14 4 13.1046 4 12Z" fill="#252D30"/>
<path id="top" fill-rule="evenodd" clip-rule="evenodd" d="M0 2C0 0.895431 0.895431 0 2 0H30C31.1046 0 32 0.895431 32 2C32 3.10457 31.1046 4 30 4H2C0.895431 4 0 3.10457 0 2Z" fill="#252D30"/>
</g>
</svg>
