<svg width="32" height="32" viewBox="0 0 32 32" fill="none" xmlns="http://www.w3.org/2000/svg">
<path fill-rule="evenodd" clip-rule="evenodd" d="M24.381 12.1905C24.381 18.9231 18.9231 24.381 12.1905 24.381C5.45786 24.381 0 18.9231 0 12.1905C0 5.45786 5.45786 0 12.1905 0C18.9231 0 24.381 5.45786 24.381 12.1905ZM12.1905 21.3333C17.2399 21.3333 21.3333 17.2399 21.3333 12.1905C21.3333 7.14102 17.2399 3.04762 12.1905 3.04762C7.14102 3.04762 3.04762 7.14102 3.04762 12.1905C3.04762 17.2399 7.14102 21.3333 12.1905 21.3333Z" fill="#F2FAFD"/>
<path fill-rule="evenodd" clip-rule="evenodd" d="M18.732 18.732C19.3271 18.1369 20.2919 18.1369 20.887 18.732L31.5537 29.3987C32.1488 29.9938 32.1488 30.9586 31.5537 31.5537C30.9586 32.1488 29.9938 32.1488 29.3987 31.5537L18.732 20.887C18.1369 20.2919 18.1369 19.3271 18.732 18.732Z" fill="#F2FAFD"/>
</svg>
