<svg width="36" height="108" viewBox="0 0 36 108" fill="none" xmlns="http://www.w3.org/2000/svg">
<path fill-rule="evenodd" clip-rule="evenodd" d="M31.9997 47.9997C31.9997 43.5846 28.4152 40 24 40H12C7.58488 40 4.00031 43.5846 4.00031 47.9997V59.9997C4.00031 64.4149 7.58488 67.9994 12 67.9994H24C28.4152 67.9994 31.9997 64.4149 31.9997 59.9997V47.9997ZM30 47.9997C30 44.6886 27.3112 41.9997 24 41.9997H12C8.68888 41.9997 6.00002 44.6886 6.00002 47.9997V59.9997C6.00002 63.3109 8.68888 65.9997 12 65.9997H24C27.3112 65.9997 30 63.3109 30 59.9997V47.9997Z" fill="#FF2316"/>
<path fill-rule="evenodd" clip-rule="evenodd" d="M18 47C14.137 47 11 50.137 11 54C11 57.863 14.137 61 18 61C21.863 61 25 57.863 25 54C25 50.137 21.863 47 18 47ZM18 49C20.76 49 23 51.24 23 54C23 56.76 20.76 59 18 59C15.24 59 13 56.76 13 54C13 51.24 15.24 49 18 49Z" fill="#FE2442"/>
<path d="M26 47C26.5523 47 27 46.5523 27 46C27 45.4477 26.5523 45 26 45C25.4477 45 25 45.4477 25 46C25 46.5523 25.4477 47 26 47Z" fill="#EB2486"/>
<path d="M33.0566 8.27993C32.8988 8.32601 32.741 8.36892 32.5833 8.40889C31.619 8.65238 31.5303 8.33108 32.2285 7.62219C32.5412 7.30454 32.8174 6.95904 33.0573 6.58589C33.5951 5.74911 33.1287 5.38419 32.2137 5.77506C31.8874 5.9145 31.5556 6.04092 31.2192 6.15364C30.2765 6.47023 28.9387 5.99266 28.0987 5.45988C27.0382 4.78737 25.833 4.45129 24.4826 4.45129C22.5911 4.45129 20.9789 5.11839 19.645 6.45151C18.3115 7.78535 17.6444 9.39805 17.6444 11.2891C17.6444 11.5477 17.6592 11.8103 17.6884 12.0765C17.7363 12.5098 17.0065 12.8239 16.0217 12.6848C13.8914 12.3841 11.8674 11.7386 9.94927 10.7491C8.04699 9.76785 6.36807 8.53308 4.91282 7.04468C4.21718 6.33333 3.27634 6.3946 3.0166 7.35486C2.86098 7.93049 2.78358 8.52913 2.78358 9.15091C2.78358 10.3226 3.05874 11.4094 3.60918 12.4112C3.88292 12.9097 4.20352 13.361 4.57168 13.7648C5.19092 14.4446 5.09616 14.839 4.23419 14.5973C3.37257 14.3556 2.74114 13.9968 2.74114 14.0203C2.74114 14.0437 2.74114 14.0628 2.74114 14.0628C2.74114 15.7136 3.2595 17.1641 4.29687 18.413C4.93589 19.1824 5.67826 19.7767 6.52369 20.1953C7.41521 20.6369 7.83051 20.8832 7.33198 20.9478C7.03122 20.9867 6.72863 21.0061 6.42428 21.0061C6.21828 21.0061 6.00215 20.9967 5.77667 20.9777C5.42005 20.9474 5.35595 21.6905 5.89662 22.5255C6.32634 23.189 6.87637 23.7729 7.5464 24.2772C8.22792 24.7905 8.9624 25.159 9.74868 25.3834C10.7054 25.6561 10.8974 26.1528 10.0444 26.6643C7.93357 27.9309 5.59762 28.5641 3.0369 28.5641C2.74838 28.5641 2.47316 28.5576 2.21025 28.545C1.75386 28.523 2.06004 28.925 2.94108 29.3864C5.69415 30.8284 8.67559 31.5487 11.8858 31.5487C14.3129 31.5487 16.5923 31.1645 18.7237 30.3954C20.8543 29.6263 22.6751 28.5957 24.1851 27.3044C25.6951 26.0131 26.9973 24.5279 28.0912 22.8482C29.1849 21.1686 29.9996 19.415 30.5363 17.5877C31.0723 15.76 31.3407 13.9287 31.3407 12.0939C31.3407 11.9285 31.3393 11.7801 31.3368 11.6494C31.3317 11.4037 31.9815 10.7387 32.707 10.0583C33.0344 9.75108 33.3467 9.42866 33.645 9.09046C34.3029 8.34367 34.0115 8.00147 33.0566 8.27993Z" fill="#1BA1F2"/>
<path d="M24.3625 74H21.0294C18.4792 74 16.6475 74.6054 15.5343 75.8156C14.4207 77.0263 13.8644 78.8092 13.8644 81.1653V83.4111C13.8644 84.0046 13.3834 84.4856 12.7899 84.4856H11.638C11.0445 84.4856 10.5635 84.9666 10.5635 85.5601V88.9255C10.5635 89.519 11.0445 90 11.638 90H12.7899C13.3834 90 13.8644 90.481 13.8644 91.0745V104.925C13.8644 105.519 14.3454 106 14.9389 106H19.4111C20.0046 106 20.4856 105.519 20.4856 104.925V91.0746C20.4856 90.481 20.9667 90.0001 21.5601 90.0001H23.8187C24.4123 90.0001 24.9438 89.5216 25.0061 88.9316L25.3629 85.554C25.4252 84.9638 24.9947 84.4856 24.4011 84.4856H21.5598C20.9663 84.4856 20.4853 84.0046 20.4853 83.4111V81.7283C20.4853 81.3143 20.5046 80.9937 20.5436 80.767C20.5823 80.5406 20.6697 80.3175 20.8058 80.0972C20.9415 79.8773 21.1618 79.7251 21.4659 79.6409C21.7699 79.5567 22.1747 79.5145 22.6794 79.5145H24.3621C24.9556 79.5145 25.4365 79.0334 25.4365 78.4399V75.0746C25.437 74.481 24.956 74 24.3625 74Z" fill="#36508B"/>
</svg>
