<svg width="32" height="32" viewBox="0 0 32 32" fill="none" xmlns="http://www.w3.org/2000/svg">
<path d="M31.0566 6.27993C30.8988 6.32601 30.741 6.36892 30.5833 6.40889C29.619 6.65238 29.5303 6.33108 30.2285 5.62219C30.5412 5.30454 30.8174 4.95904 31.0573 4.58589C31.5951 3.74911 31.1287 3.38419 30.2137 3.77506C29.8874 3.9145 29.5556 4.04092 29.2192 4.15364C28.2765 4.47023 26.9387 3.99266 26.0987 3.45988C25.0382 2.78737 23.833 2.45129 22.4826 2.45129C20.5911 2.45129 18.9789 3.11839 17.645 4.45151C16.3115 5.78535 15.6444 7.39805 15.6444 9.28909C15.6444 9.54771 15.6592 9.81027 15.6884 10.0765C15.7363 10.5098 15.0065 10.8239 14.0217 10.6848C11.8914 10.3841 9.86739 9.73858 7.94928 8.74907C6.047 7.76785 4.36808 6.53308 2.91283 5.04468C2.21719 4.33333 1.27635 4.3946 1.01661 5.35486C0.860987 5.93049 0.783589 6.52913 0.783589 7.15091C0.783589 8.32265 1.05875 9.40939 1.60919 10.4112C1.88293 10.9097 2.20353 11.361 2.57169 11.7648C3.19093 12.4446 3.09617 12.839 2.2342 12.5973C1.37258 12.3556 0.741152 11.9968 0.741152 12.0203C0.741152 12.0437 0.741152 12.0628 0.741152 12.0628C0.741152 13.7136 1.25951 15.1641 2.29688 16.413C2.9359 17.1824 3.67827 17.7767 4.5237 18.1953C5.41522 18.6369 5.83052 18.8832 5.332 18.9478C5.03123 18.9867 4.72864 19.0061 4.42429 19.0061C4.21829 19.0061 4.00216 18.9967 3.77668 18.9777C3.42006 18.9474 3.35597 19.6905 3.89663 20.5255C4.32635 21.189 4.87638 21.7729 5.54641 22.2772C6.22793 22.7905 6.96241 23.159 7.74869 23.3834C8.70543 23.6561 8.89742 24.1528 8.04439 24.6643C5.93358 25.9309 3.59764 26.5641 1.03691 26.5641C0.748392 26.5641 0.473173 26.5576 0.210256 26.545C-0.246127 26.523 0.0600509 26.925 0.941092 27.3864C3.69416 28.8284 6.6756 29.5487 9.88582 29.5487C12.3129 29.5487 14.5923 29.1645 16.7237 28.3954C18.8543 27.6263 20.6751 26.5957 22.1851 25.3044C23.6951 24.0131 24.9973 22.5279 26.0912 20.8482C27.1849 19.1686 27.9996 17.415 28.5364 15.5877C29.0723 13.76 29.3407 11.9287 29.3407 10.0939C29.3407 9.92852 29.3393 9.78008 29.3368 9.64936C29.3317 9.40369 29.9815 8.73871 30.707 8.05832C31.0344 7.75108 31.3467 7.42866 31.645 7.09046C32.303 6.34367 32.0115 6.00147 31.0566 6.27993Z" fill="#1BA1F2"/>
</svg>
