<svg width="32" height="32" viewBox="0 0 32 32" fill="none" xmlns="http://www.w3.org/2000/svg">
<path fill-rule="evenodd" clip-rule="evenodd" d="M24.5332 9.06665C24.5332 13.7794 20.7128 17.5999 16 17.5999C11.2872 17.5999 7.46677 13.7794 7.46677 9.06665C7.46677 4.35388 11.2872 0.533417 16 0.533417C20.7128 0.533417 24.5332 4.35388 24.5332 9.06665ZM16 15.4666C19.5346 15.4666 22.3999 12.6012 22.3999 9.06665C22.3999 5.53207 19.5346 2.66673 16 2.66673C12.4654 2.66673 9.60007 5.53207 9.60007 9.06665C9.60007 12.6012 12.4654 15.4666 16 15.4666Z" fill="#F2FAFD"/>
<path fill-rule="evenodd" clip-rule="evenodd" d="M2.11625 30.5908L2.11731 30.585L2.12144 30.5628C2.12522 30.5427 2.13107 30.5118 2.13898 30.471C2.15481 30.3894 2.17888 30.2681 2.21118 30.1126C2.27583 29.8015 2.37328 29.3547 2.50346 28.8177C2.76457 27.7407 3.15392 26.3148 3.66926 24.8977C4.18925 23.4677 4.81546 22.109 5.52944 21.1272C6.26746 20.1124 6.92333 19.7332 7.46677 19.7332H24.5332C25.0767 19.7332 25.7325 20.1124 26.4706 21.1272C27.1845 22.109 27.8108 23.4677 28.3307 24.8977C28.8461 26.3148 29.2354 27.7407 29.4965 28.8177C29.6267 29.3547 29.7242 29.8015 29.7888 30.1126C29.8211 30.2681 29.8452 30.3894 29.861 30.471C29.8689 30.5118 29.8748 30.5427 29.8786 30.5628L29.8827 30.585L29.8836 30.5899C29.8836 30.5898 29.8836 30.5899 29.8836 30.5899C29.9891 31.1693 30.5445 31.5546 31.124 31.4492C31.7036 31.3438 32.088 30.7885 31.9826 30.2089L30.9332 30.3997C31.9826 30.2089 31.9827 30.2092 31.9826 30.2089L31.9824 30.2077L31.982 30.2053L31.9805 30.1975L31.9753 30.1693C31.9707 30.1451 31.9641 30.11 31.9553 30.0649C31.9378 29.9746 31.9119 29.8439 31.8775 29.6786C31.8088 29.348 31.7063 28.8781 31.5698 28.3151C31.2976 27.1922 30.8869 25.6848 30.3356 24.1686C29.789 22.6653 29.0818 21.0907 28.1958 19.8725C27.3339 18.6873 26.1231 17.5999 24.5332 17.5999H7.46677C5.87689 17.5999 4.66612 18.6873 3.80416 19.8725C2.91816 21.0907 2.21105 22.6653 1.66439 24.1686C1.11306 25.6848 0.702425 27.1922 0.430207 28.3151C0.293724 28.8781 0.19118 29.348 0.122492 29.6786C0.0881328 29.8439 0.0622028 29.9746 0.0446957 30.0649C0.035941 30.11 0.029289 30.1451 0.0247391 30.1693L0.0194895 30.1975L0.0180461 30.2053L0.0176197 30.2077C0.0175705 30.2079 0.0173901 30.2089 1.06684 30.3997L0.0173902 30.2089C-0.0879907 30.7885 0.296436 31.3438 0.87603 31.4492C1.45555 31.5546 2.01076 31.1702 2.11625 30.5908Z" fill="#F2FAFD"/>
</svg>
